<?xml version="1.0" standalone="no"?><!DOCTYPE svg PUBLIC "-//W3C//DTD SVG 1.1//EN" "http://www.w3.org/Graphics/SVG/1.1/DTD/svg11.dtd"><svg t="1567135625986" class="icon" viewBox="0 0 1024 1024" version="1.1" xmlns="http://www.w3.org/2000/svg" p-id="1490" xmlns:xlink="http://www.w3.org/1999/xlink" width="32" height="32"><defs><style type="text/css"></style></defs><path d="M983.04 347.648V184.32c0-33.792-27.648-61.44-61.44-61.44H102.4c-33.792 0-61.44 27.648-61.44 61.44v163.328h942.08zM40.96 450.048v393.728C40.96 875.52 67.072 901.12 98.304 901.12h824.32c33.792 0 60.928-27.136 60.416-60.416V450.048H40.96z m807.936 211.968l-18.944 75.264c-3.584 15.36-17.408 26.112-33.28 26.112h-86.528c-11.264 0-19.456-10.752-16.896-21.504l19.968-78.848c3.072-13.312 15.36-22.528 28.672-22.528h90.624c11.264 0 19.456 10.752 16.384 21.504z" fill="#FFCC01" p-id="1491"></path></svg>